# xmcd
#
# Track frame offsets:
#	155
#	17724
#	23762
#	39022
#	48913
#	54073
#	59682
#	72075
#	81835
#	83639
#	87104
#	89264
#	93169
#	94770
#	104719
#	112888
#	161899
#	179733
#	199975
#
# Disc length: 2755 seconds
#
# Revision: 1
# Processed by: cddbd v1.5.1PL0 Copyright (c) Steve Scherf et al.
# Submitted via: CDex 1.50Beta5
#
DISCID=eb0ac113
DTITLE=小倉書店 - 新精選英会話基本の型と表現 Disc2
DYEAR=1900
DGENRE=Other
TTITLE0=Unit 1
TTITLE1=Unit 2
TTITLE2=Unit 3
TTITLE3=Unit 4
TTITLE4=Unit 5
TTITLE5=Unit 6
TTITLE6=Unit 7
TTITLE7=Unit 8
TTITLE8=Unit 9
TTITLE9=Unit 10
TTITLE10=Unit 11
TTITLE11=Unit 12
TTITLE12=Unit 13
TTITLE13=Unit 14
TTITLE14=Unit 15
TTITLE15=Unit 16
TTITLE16=Unit 17
TTITLE17=Unit 18
TTITLE18=Unit 19
EXTD=
EXTT0=
EXTT1=
EXTT2=
EXTT3=
EXTT4=
EXTT5=
EXTT6=
EXTT7=
EXTT8=
EXTT9=
EXTT10=
EXTT11=
EXTT12=
EXTT13=
EXTT14=
EXTT15=
EXTT16=
EXTT17=
EXTT18=
PLAYORDER=
